<?xml version="1.0" standalone="no"?>
<!DOCTYPE svg PUBLIC "-//W3C//DTD SVG 20010904//EN"
 "http://www.w3.org/TR/2001/REC-SVG-20010904/DTD/svg10.dtd">
<svg version="1.0" xmlns="http://www.w3.org/2000/svg"
 width="800.000000pt" height="758.000000pt" viewBox="0 0 800.000000 758.000000"
 preserveAspectRatio="xMidYMid meet">

<g transform="translate(0.000000,758.000000) scale(0.100000,-0.100000)"
fill="#f1511b" stroke="none">
<path d="M1750 7531 c0 -57 110 -378 181 -530 27 -57 48 -106 46 -108 -2 -2
-30 8 -62 22 -128 57 -220 77 -380 82 -111 4 -173 1 -239 -11 -49 -8 -91 -18
-93 -20 -3 -2 13 -31 35 -63 101 -150 272 -435 272 -455 0 -5 -19 -35 -43 -66
-138 -182 -240 -396 -284 -594 -28 -128 -25 -452 5 -610 186 -977 1042 -1973
2282 -2658 120 -67 484 -250 495 -250 4 0 -10 19 -30 42 -416 484 -680 976
-790 1468 -61 277 -60 626 4 878 43 167 120 357 195 482 l28 45 -6 -135 c-10
-221 10 -535 51 -804 l16 -109 24 84 c68 237 206 458 398 637 186 173 546 288
1180 376 99 14 227 30 285 36 368 40 612 140 861 353 144 124 296 341 287 413
-3 27 -6 29 -53 31 -918 42 -1933 332 -2665 762 -293 172 -465 233 -732 260
l-88 8 -58 54 c-126 118 -375 261 -552 318 -154 49 -348 81 -500 81 -63 0 -70
-2 -70 -19z"/>
<path d="M812 5702 c-127 -307 -209 -614 -257 -967 -23 -160 -31 -590 -16
-766 132 -1513 1126 -2775 2561 -3249 1318 -436 2770 -103 3769 865 621 601
1018 1404 1116 2255 23 202 23 201 -58 50 -197 -363 -405 -638 -693 -920 -449
-437 -969 -740 -1573 -916 -797 -232 -1640 -193 -2416 113 -1079 426 -1903
1329 -2225 2441 -97 336 -139 613 -149 989 l-6 233 -53 -128z"/>
</g>
</svg>
